<svg xmlns="http://www.w3.org/2000/svg" width="636" height="126" viewBox="0 0 636 126" shape-rendering="crispEdges"><defs><g id="body"><rect x="18" y="116" width="72" height="4" fill="#11141a" opacity=".55"/><rect x="29" y="40" width="34" height="30" fill="#31445a"/><rect x="34" y="44" width="24" height="4" fill="#667f98"/><rect x="28" y="60" width="36" height="8" fill="#1b2531"/><rect x="28" y="68" width="35" height="23" fill="#253446"/><rect x="31" y="87" width="12" height="10" fill="#1a2330"/><rect x="48" y="87" width="12" height="11" fill="#1d2734"/><rect x="39" y="31" width="10" height="9" fill="#a36a52"/><rect x="34" y="12" width="24" height="22" fill="#c98e6b"/><rect x="34" y="10" width="24" height="6" fill="#2a2524"/><rect x="32" y="14" width="5" height="16" fill="#2c2727"/><rect x="39" y="20" width="3" height="2" fill="#2a1b17"/><rect x="50" y="20" width="3" height="2" fill="#2a1b17"/><rect x="43" y="27" width="8" height="2" fill="#874f3e"/><rect x="20" y="45" width="8" height="26" fill="#b8795d"/><rect x="58" y="43" width="9" height="28" fill="#c18666"/><rect x="57" y="24" width="31" height="20" fill="#0d1117"/><rect x="82" y="29" width="17" height="10" fill="#343b45"/><rect x="96" y="31" width="7" height="6" fill="#080a0d"/><rect x="62" y="19" width="9" height="8" fill="#59636f"/><rect x="61" y="43" width="8" height="7" fill="#808791"/><path d="M59 31L42 61" stroke="#11161d" stroke-width="3"/><rect x="31" y="52" width="3" height="25" fill="#4c6179"/><rect x="56" y="52" width="3" height="20" fill="#17212b"/></g></defs><g transform="translate(0)"><use href="#body"/><rect x="27" y="82" width="12" height="29" fill="#29384a"/><rect x="47" y="83" width="11" height="27" fill="#202a36"/><rect x="24" y="108" width="18" height="6" fill="#11151c"/><rect x="45" y="107" width="16" height="6" fill="#11151c"/></g><g transform="translate(106)"><use href="#body"/><rect x="29" y="82" width="12" height="29" fill="#29384a"/><rect x="45" y="83" width="11" height="27" fill="#202a36"/><rect x="27" y="108" width="17" height="6" fill="#11151c"/><rect x="43" y="107" width="16" height="6" fill="#11151c"/></g><g transform="translate(212)"><use href="#body"/><rect x="31" y="82" width="12" height="29" fill="#29384a"/><rect x="43" y="83" width="11" height="27" fill="#202a36"/><rect x="30" y="108" width="17" height="6" fill="#11151c"/><rect x="41" y="107" width="16" height="6" fill="#11151c"/></g><g transform="translate(318)"><use href="#body"/><rect x="33" y="82" width="12" height="29" fill="#29384a"/><rect x="42" y="83" width="11" height="27" fill="#202a36"/><rect x="32" y="108" width="17" height="6" fill="#11151c"/><rect x="40" y="107" width="16" height="6" fill="#11151c"/></g><g transform="translate(424)"><use href="#body"/><rect x="29" y="82" width="12" height="29" fill="#29384a"/><rect x="45" y="83" width="11" height="27" fill="#202a36"/><rect x="27" y="108" width="17" height="6" fill="#11151c"/><rect x="43" y="107" width="16" height="6" fill="#11151c"/></g><g transform="translate(530)"><use href="#body"/><rect x="25" y="82" width="12" height="29" fill="#29384a"/><rect x="48" y="83" width="11" height="27" fill="#202a36"/><rect x="22" y="108" width="18" height="6" fill="#11151c"/><rect x="46" y="107" width="16" height="6" fill="#11151c"/></g></svg>